<svg preserveAscpectRatio="xMidYMid meet" viewBox="0 0 36 36" fill="currentColor" xmlns="http://www.w3.org/2000/svg">
<path fill-rule="evenodd" clip-rule="evenodd" d="M20.538 6.75H12.6V10.3846H19.062L22.662 14.0192H8.1C3.6 14.0192 0 17.6538 0 22.1971C0 26.7404 3.6 30.375 8.1 30.375C12.096 30.375 15.408 27.431 16.056 23.5964L19.872 21.2885C19.8 21.5974 19.8 21.8882 19.8 22.1971V22.1971C19.8 26.7404 23.4 30.375 27.9 30.375C32.4 30.375 36 26.7404 36 22.1971C36 17.6538 32.4 14.0192 27.9 14.0192H27.756L20.538 6.75ZM12.312 23.5783C11.7 25.4137 10.044 26.7404 8.046 26.7404C5.562 26.7404 3.546 24.705 3.546 22.1971C3.546 19.6892 5.562 17.6538 8.046 17.6538C10.062 17.6538 11.7 18.9987 12.312 20.8341H7.2V23.5601L12.312 23.5783ZM23.346 22.1971C23.346 24.705 25.362 26.7404 27.846 26.7404C30.3313 26.7404 32.346 24.7063 32.346 22.1971C32.346 19.6879 30.3313 17.6538 27.846 17.6538C25.362 17.6538 23.346 19.6892 23.346 22.1971Z" fill="currentColor"/>
</svg>
