<svg preserveAscpectRatio="xMidYMid meet" viewBox="0 0 36 36" fill="currentColor" xmlns="http://www.w3.org/2000/svg">
<path fill-rule="evenodd" clip-rule="evenodd" d="M18 5.67661C19.962 3.30963 22.968 1.79999 26.1 1.79999C31.644 1.79999 36 6.29165 36 12.0507C36 19.077 29.88 24.8361 20.61 33.5398L18 36L15.39 33.5398C6.12 24.8361 0 19.077 0 12.0507C0 6.29165 4.356 1.79999 9.9 1.79999C13.032 1.79999 16.038 3.30963 18 5.67661ZM18 30.9678L18.18 30.7815C26.748 22.7487 32.4 17.4369 32.4 12.0507C32.4 8.32315 29.7 5.52751 26.1 5.52751C23.328 5.52751 20.628 7.39127 19.674 9.92598H16.326C15.372 7.39127 12.672 5.52751 9.9 5.52751C6.3 5.52751 3.6 8.32315 3.6 12.0507C3.6 17.4369 9.252 22.7487 17.802 30.7815L18 30.9678Z" fill="currentColor"/>
</svg>
